<?xml version="1.0" encoding="UTF-8" standalone="no"?>
<!DOCTYPE svg PUBLIC "-//W3C//DTD SVG 1.1//EN"
 "http://www.w3.org/Graphics/SVG/1.1/DTD/svg11.dtd">
<!-- Generated by graphviz version 12.2.0 (20241103.1931)
 -->
<!-- Title: MainActivity Pages: 1 -->
<svg width="141pt" height="155pt"
 viewBox="0.00 0.00 140.75 154.75" xmlns="http://www.w3.org/2000/svg" xmlns:xlink="http://www.w3.org/1999/xlink">

<svg id="main" version="1.1" xmlns="http://www.w3.org/2000/svg" xmlns:xlink="http://www.w3.org/1999/xlink" xml:space="preserve">

<style type="text/css"><![CDATA[
.node, .edge {opacity: 0.7;}
.node.selected, .edge.selected {opacity: 1;}
.edge:hover path { stroke: red; }
.edge:hover polygon { stroke: red; fill: red; }
]]></style>
<script type="application/ecmascript" xlink:href="svg.min.js"/>
<svg id="graph" class="graph">
<g id="graph0" class="graph" transform="scale(1 1) rotate(0) translate(4 150.75)">
<title>MainActivity</title>
<!-- Node1 -->
<g id="Node000001" class="node">
<title>Node1</title>
<g id="a_Node000001"><a xlink:title="The main activity of the application BestNotepadEverCreated.">
<polygon fill="#999999" stroke="none" points="132.75,-61 0,-61 0,0 132.75,0 132.75,-61"/>
<text text-anchor="start" x="39.75" y="-47.5" font-family="Helvetica,sans-Serif" font-size="10.00">MainActivity</text>
<text text-anchor="start" x="4" y="-32.25" font-family="Helvetica,sans-Serif" font-size="10.00">&#45;</text>
<text text-anchor="start" x="11" y="-32.25" font-family="Helvetica,sans-Serif" font-size="10.00">lateinit var biometricPrompt</text>
<text text-anchor="start" x="11" y="-21" font-family="Helvetica,sans-Serif" font-size="10.00">Manager</text>
<text text-anchor="start" x="64.88" y="-5.75" font-family="Helvetica,sans-Serif" font-size="10.00"> </text>
<polygon fill="#666666" stroke="#666666" points="0,-43.75 0,-43.75 132.75,-43.75 132.75,-43.75 0,-43.75"/>
<polygon fill="#666666" stroke="#666666" points="0,-17.25 0,-17.25 9,-17.25 9,-17.25 0,-17.25"/>
<polygon fill="#666666" stroke="#666666" points="9,-17.25 9,-17.25 132.75,-17.25 132.75,-17.25 9,-17.25"/>
<polygon fill="none" stroke="#666666" points="0,0 0,-61 132.75,-61 132.75,0 0,0"/>
</a>
</g>
</g>
<!-- Node2 -->
<g id="Node000002" class="node">
<title>Node2</title>
<g id="a_Node000002"><a xlink:title=" ">
<polygon fill="white" stroke="none" points="107.12,-146.75 25.62,-146.75 25.62,-97 107.12,-97 107.12,-146.75"/>
<text text-anchor="start" x="29.62" y="-133.25" font-family="Helvetica,sans-Serif" font-size="10.00">FragmentActivity</text>
<text text-anchor="start" x="64.88" y="-118" font-family="Helvetica,sans-Serif" font-size="10.00"> </text>
<text text-anchor="start" x="64.88" y="-102.75" font-family="Helvetica,sans-Serif" font-size="10.00"> </text>
<polygon fill="#666666" stroke="#666666" points="25.62,-129.5 25.62,-129.5 107.12,-129.5 107.12,-129.5 25.62,-129.5"/>
<polygon fill="#666666" stroke="#666666" points="25.62,-114.25 25.62,-114.25 107.12,-114.25 107.12,-114.25 25.62,-114.25"/>
<polygon fill="none" stroke="#666666" points="25.62,-97 25.62,-146.75 107.12,-146.75 107.12,-97 25.62,-97"/>
</a>
</g>
</g>
<!-- Node2&#45;&gt;Node1 -->
<g id="edge1_Node000001_Node000002" class="edge">
<title>Node2&#45;&gt;Node1</title>
<g id="a_edge1_Node000001_Node000002"><a xlink:title=" ">
<path fill="none" stroke="#63b8ff" d="M66.38,-86.08C66.38,-77.76 66.38,-68.95 66.38,-60.9"/>
<polygon fill="none" stroke="#63b8ff" points="62.88,-85.88 66.38,-95.88 69.88,-85.88 62.88,-85.88"/>
</a>
</g>
</g>
</g>
</svg>
</svg>

<style type='text/css'>
<![CDATA[
[data-mouse-over-selected='false'] { opacity: 0.7; }
[data-mouse-over-selected='true']  { opacity: 1.0; }
]]>
</style>
<script type="application/ecmascript"><![CDATA[
document.addEventListener('DOMContentLoaded', (event) => {
  highlightEdges();
  highlightAdjacentNodes();
});
]]></script>
</svg>
