<?xml version="1.0" encoding="UTF-8" standalone="no"?>
<!DOCTYPE svg PUBLIC "-//W3C//DTD SVG 1.1//EN"
 "http://www.w3.org/Graphics/SVG/1.1/DTD/svg11.dtd">
<!-- Generated by graphviz version 12.2.0 (20241103.1931)
 -->
<!-- Title: MainActivity Pages: 1 -->
<svg width="151pt" height="258pt"
 viewBox="0.00 0.00 150.50 257.50" xmlns="http://www.w3.org/2000/svg" xmlns:xlink="http://www.w3.org/1999/xlink">
<g id="graph0" class="graph" transform="scale(1 1) rotate(0) translate(4 253.5)">
<title>MainActivity</title>
<!-- Node1 -->
<g id="Node000001" class="node">
<title>Node1</title>
<g id="a_Node000001"><a xlink:title="The main activity of the application BestNotepadEverCreated.">
<polygon fill="#999999" stroke="none" points="142.5,-163.75 0,-163.75 0,0 142.5,0 142.5,-163.75"/>
<text text-anchor="start" x="44.62" y="-150.25" font-family="Helvetica,sans-Serif" font-size="10.00">MainActivity</text>
<text text-anchor="start" x="4" y="-135" font-family="Helvetica,sans-Serif" font-size="10.00">&#45;</text>
<text text-anchor="start" x="11" y="-135" font-family="Helvetica,sans-Serif" font-size="10.00">lateinit var biometricPrompt</text>
<text text-anchor="start" x="11" y="-123.75" font-family="Helvetica,sans-Serif" font-size="10.00">Manager</text>
<text text-anchor="start" x="4" y="-108.5" font-family="Helvetica,sans-Serif" font-size="10.00">&#45;</text>
<text text-anchor="start" x="11" y="-108.5" font-family="Helvetica,sans-Serif" font-size="10.00">lateinit var navController</text>
<text text-anchor="start" x="4" y="-93.25" font-family="Helvetica,sans-Serif" font-size="10.00">&#45;</text>
<text text-anchor="start" x="11" y="-93.25" font-family="Helvetica,sans-Serif" font-size="10.00">lateinit var startDestination</text>
<text text-anchor="start" x="4" y="-78" font-family="Helvetica,sans-Serif" font-size="10.00">&#45;</text>
<text text-anchor="start" x="11" y="-78" font-family="Helvetica,sans-Serif" font-size="10.00">lateinit var enterTransition</text>
<text text-anchor="start" x="4" y="-62.75" font-family="Helvetica,sans-Serif" font-size="10.00">&#45;</text>
<text text-anchor="start" x="11" y="-62.75" font-family="Helvetica,sans-Serif" font-size="10.00">lateinit var exitTransition</text>
<text text-anchor="start" x="4" y="-47.5" font-family="Helvetica,sans-Serif" font-size="10.00">&#45;</text>
<text text-anchor="start" x="11" y="-47.5" font-family="Helvetica,sans-Serif" font-size="10.00">lateinit var popEnterTransition</text>
<text text-anchor="start" x="4" y="-32.25" font-family="Helvetica,sans-Serif" font-size="10.00">&#45;</text>
<text text-anchor="start" x="11" y="-32.25" font-family="Helvetica,sans-Serif" font-size="10.00">lateinit var popExitTransition</text>
<text text-anchor="start" x="4" y="-17" font-family="Helvetica,sans-Serif" font-size="10.00">&#45;</text>
<text text-anchor="start" x="11" y="-17" font-family="Helvetica,sans-Serif" font-size="10.00">lateinit var [instance</text>
<text text-anchor="start" x="11" y="-5.75" font-family="Helvetica,sans-Serif" font-size="10.00"> initializer]</text>
<polygon fill="#666666" stroke="#666666" points="0,-146.5 0,-146.5 142.5,-146.5 142.5,-146.5 0,-146.5"/>
<polygon fill="#666666" stroke="#666666" points="0,-28.5 0,-28.5 9,-28.5 9,-28.5 0,-28.5"/>
<polygon fill="#666666" stroke="#666666" points="9,-28.5 9,-28.5 142.5,-28.5 142.5,-28.5 9,-28.5"/>
<polygon fill="none" stroke="#666666" points="0,0 0,-163.75 142.5,-163.75 142.5,0 0,0"/>
</a>
</g>
</g>
<!-- Node2 -->
<g id="Node000002" class="node">
<title>Node2</title>
<g id="a_Node000002"><a xlink:title=" ">
<polygon fill="white" stroke="none" points="112,-249.5 30.5,-249.5 30.5,-199.75 112,-199.75 112,-249.5"/>
<text text-anchor="start" x="34.5" y="-236" font-family="Helvetica,sans-Serif" font-size="10.00">FragmentActivity</text>
<text text-anchor="start" x="69.75" y="-220.75" font-family="Helvetica,sans-Serif" font-size="10.00"> </text>
<text text-anchor="start" x="69.75" y="-205.5" font-family="Helvetica,sans-Serif" font-size="10.00"> </text>
<polygon fill="#666666" stroke="#666666" points="30.5,-232.25 30.5,-232.25 112,-232.25 112,-232.25 30.5,-232.25"/>
<polygon fill="#666666" stroke="#666666" points="30.5,-217 30.5,-217 112,-217 112,-217 30.5,-217"/>
<polygon fill="none" stroke="#666666" points="30.5,-199.75 30.5,-249.5 112,-249.5 112,-199.75 30.5,-199.75"/>
</a>
</g>
</g>
<!-- Node2&#45;&gt;Node1 -->
<g id="edge1_Node000001_Node000002" class="edge">
<title>Node2&#45;&gt;Node1</title>
<g id="a_edge1_Node000001_Node000002"><a xlink:title=" ">
<path fill="none" stroke="#63b8ff" d="M71.25,-188.62C71.25,-180.88 71.25,-172.37 71.25,-163.64"/>
<polygon fill="none" stroke="#63b8ff" points="67.75,-188.55 71.25,-198.55 74.75,-188.55 67.75,-188.55"/>
</a>
</g>
</g>
</g>
</svg>
