<?xml version="1.0" encoding="UTF-8" standalone="no"?>
<!DOCTYPE svg PUBLIC "-//W3C//DTD SVG 1.1//EN"
 "http://www.w3.org/Graphics/SVG/1.1/DTD/svg11.dtd">
<!-- Generated by graphviz version 12.2.1 (20241206.2353)
 -->
<!-- Title: MainActivity Pages: 1 -->
<svg width="278pt" height="340pt"
 viewBox="0.00 0.00 278.00 339.50" xmlns="http://www.w3.org/2000/svg" xmlns:xlink="http://www.w3.org/1999/xlink">
<g id="graph0" class="graph" transform="scale(1 1) rotate(0) translate(4 335.5)">
<title>MainActivity</title>
<!-- Node1 -->
<g id="Node000001" class="node">
<title>Node1</title>
<g id="a_Node000001"><a xlink:title="Główna aktywność aplikacji BestNotepadEverCreated.">
<polygon fill="#999999" stroke="none" points="270,-245.75 0,-245.75 0,0 270,0 270,-245.75"/>
<text text-anchor="start" x="108.38" y="-232.25" font-family="Helvetica,sans-Serif" font-size="10.00">MainActivity</text>
<text text-anchor="start" x="4" y="-217" font-family="Helvetica,sans-Serif" font-size="10.00">&#45;</text>
<text text-anchor="start" x="11" y="-217" font-family="Helvetica,sans-Serif" font-size="10.00">lateinit var biometricPrompt</text>
<text text-anchor="start" x="11" y="-205.75" font-family="Helvetica,sans-Serif" font-size="10.00">Manager</text>
<text text-anchor="start" x="4" y="-190.5" font-family="Helvetica,sans-Serif" font-size="10.00">&#45;</text>
<text text-anchor="start" x="11" y="-190.5" font-family="Helvetica,sans-Serif" font-size="10.00">lateinit var sheetPeekHeight</text>
<text text-anchor="start" x="4" y="-175.25" font-family="Helvetica,sans-Serif" font-size="10.00">&#45;</text>
<text text-anchor="start" x="11" y="-175.25" font-family="Helvetica,sans-Serif" font-size="10.00">lateinit var sheetContent</text>
<text text-anchor="start" x="4" y="-160" font-family="Helvetica,sans-Serif" font-size="10.00">&#45;</text>
<text text-anchor="start" x="11" y="-160" font-family="Helvetica,sans-Serif" font-size="10.00">lateinit var [instance</text>
<text text-anchor="start" x="11" y="-148.75" font-family="Helvetica,sans-Serif" font-size="10.00"> initializer]</text>
<text text-anchor="start" x="4" y="-133.5" font-family="Helvetica,sans-Serif" font-size="10.00">&#45;</text>
<text text-anchor="start" x="11" y="-133.5" font-family="Helvetica,sans-Serif" font-size="10.00">NavHost(modifier=Modifier.background</text>
<text text-anchor="start" x="11" y="-122.25" font-family="Helvetica,sans-Serif" font-size="10.00">(MaterialTheme.colorScheme.background)</text>
<text text-anchor="start" x="11" y="-111" font-family="Helvetica,sans-Serif" font-size="10.00">, navController=navController, startDestination</text>
<text text-anchor="start" x="11" y="-99.75" font-family="Helvetica,sans-Serif" font-size="10.00">=&quot;MainPage&quot;, enterTransition={ slideInHorizontally</text>
<text text-anchor="start" x="11" y="-88.5" font-family="Helvetica,sans-Serif" font-size="10.00"> { it }+fadeIn(initialAlpha=0.75f, animationSpec</text>
<text text-anchor="start" x="11" y="-77.25" font-family="Helvetica,sans-Serif" font-size="10.00">=tween(1000),) }, exitTransition={ slideOutHorizontally</text>
<text text-anchor="start" x="11" y="-66" font-family="Helvetica,sans-Serif" font-size="10.00"> { &#45;it }+fadeOut(targetAlpha=0.75f, animationSpec=tween</text>
<text text-anchor="start" x="11" y="-54.75" font-family="Helvetica,sans-Serif" font-size="10.00">(1000),) }, popEnterTransition={ slideInHorizontally {</text>
<text text-anchor="start" x="11" y="-43.5" font-family="Helvetica,sans-Serif" font-size="10.00"> &#45;it }+fadeIn(initialAlpha=0.75f, animationSpec=tween(1000)</text>
<text text-anchor="start" x="11" y="-32.25" font-family="Helvetica,sans-Serif" font-size="10.00">,) }, popExitTransition={ slideOutHorizontally { it }+fadeOut</text>
<text text-anchor="start" x="11" y="-21" font-family="Helvetica,sans-Serif" font-size="10.00">(targetAlpha=0.75f, animationSpec=tween(1000),) },)</text>
<text text-anchor="start" x="4" y="-5.75" font-family="Helvetica,sans-Serif" font-size="10.00">&#45;</text>
<text text-anchor="start" x="11" y="-5.75" font-family="Helvetica,sans-Serif" font-size="10.00">fun requestCameraPermission()</text>
<polygon fill="#666666" stroke="#666666" points="0,-228.5 0,-228.5 270,-228.5 270,-228.5 0,-228.5"/>
<polygon fill="#666666" stroke="#666666" points="0,-171.5 0,-171.5 9,-171.5 9,-171.5 0,-171.5"/>
<polygon fill="#666666" stroke="#666666" points="9,-171.5 9,-171.5 270,-171.5 270,-171.5 9,-171.5"/>
<polygon fill="none" stroke="#666666" points="0,0 0,-245.75 270,-245.75 270,0 0,0"/>
</a>
</g>
</g>
<!-- Node2 -->
<g id="Node000002" class="node">
<title>Node2</title>
<g id="a_Node000002"><a xlink:title=" ">
<polygon fill="white" stroke="none" points="175.75,-331.5 94.25,-331.5 94.25,-281.75 175.75,-281.75 175.75,-331.5"/>
<text text-anchor="start" x="98.25" y="-318" font-family="Helvetica,sans-Serif" font-size="10.00">FragmentActivity</text>
<text text-anchor="start" x="133.5" y="-302.75" font-family="Helvetica,sans-Serif" font-size="10.00"> </text>
<text text-anchor="start" x="133.5" y="-287.5" font-family="Helvetica,sans-Serif" font-size="10.00"> </text>
<polygon fill="#666666" stroke="#666666" points="94.25,-314.25 94.25,-314.25 175.75,-314.25 175.75,-314.25 94.25,-314.25"/>
<polygon fill="#666666" stroke="#666666" points="94.25,-299 94.25,-299 175.75,-299 175.75,-299 94.25,-299"/>
<polygon fill="none" stroke="#666666" points="94.25,-281.75 94.25,-331.5 175.75,-331.5 175.75,-281.75 94.25,-281.75"/>
</a>
</g>
</g>
<!-- Node2&#45;&gt;Node1 -->
<g id="edge1_Node000001_Node000002" class="edge">
<title>Node2&#45;&gt;Node1</title>
<g id="a_edge1_Node000001_Node000002"><a xlink:title=" ">
<path fill="none" stroke="#63b8ff" d="M135,-270.62C135,-262.97 135,-254.46 135,-245.5"/>
<polygon fill="none" stroke="#63b8ff" points="131.5,-270.35 135,-280.35 138.5,-270.35 131.5,-270.35"/>
</a>
</g>
</g>
</g>
</svg>
