<?xml version="1.0" encoding="UTF-8" standalone="no"?>
<!DOCTYPE svg PUBLIC "-//W3C//DTD SVG 1.1//EN"
 "http://www.w3.org/Graphics/SVG/1.1/DTD/svg11.dtd">
<!-- Generated by graphviz version 12.2.1 (20241206.2353)
 -->
<!-- Title: MainActivity Pages: 1 -->
<svg width="160pt" height="273pt"
 viewBox="0.00 0.00 159.50 272.75" xmlns="http://www.w3.org/2000/svg" xmlns:xlink="http://www.w3.org/1999/xlink">
<g id="graph0" class="graph" transform="scale(1 1) rotate(0) translate(4 268.75)">
<title>MainActivity</title>
<!-- Node1 -->
<g id="Node000001" class="node">
<title>Node1</title>
<g id="a_Node000001"><a xlink:title="Główna aktywność aplikacji BestNotepadEverCreated.">
<polygon fill="#999999" stroke="none" points="151.5,-179 0,-179 0,0 151.5,0 151.5,-179"/>
<text text-anchor="start" x="49.12" y="-165.5" font-family="Helvetica,sans-Serif" font-size="10.00">MainActivity</text>
<text text-anchor="start" x="4" y="-150.25" font-family="Helvetica,sans-Serif" font-size="10.00">&#45;</text>
<text text-anchor="start" x="11" y="-150.25" font-family="Helvetica,sans-Serif" font-size="10.00">lateinit var biometricPrompt</text>
<text text-anchor="start" x="11" y="-139" font-family="Helvetica,sans-Serif" font-size="10.00">Manager</text>
<text text-anchor="start" x="4" y="-123.75" font-family="Helvetica,sans-Serif" font-size="10.00">&#45;</text>
<text text-anchor="start" x="11" y="-123.75" font-family="Helvetica,sans-Serif" font-size="10.00">lateinit var navController</text>
<text text-anchor="start" x="4" y="-108.5" font-family="Helvetica,sans-Serif" font-size="10.00">&#45;</text>
<text text-anchor="start" x="11" y="-108.5" font-family="Helvetica,sans-Serif" font-size="10.00">lateinit var startDestination</text>
<text text-anchor="start" x="4" y="-93.25" font-family="Helvetica,sans-Serif" font-size="10.00">&#45;</text>
<text text-anchor="start" x="11" y="-93.25" font-family="Helvetica,sans-Serif" font-size="10.00">lateinit var enterTransition</text>
<text text-anchor="start" x="4" y="-78" font-family="Helvetica,sans-Serif" font-size="10.00">&#45;</text>
<text text-anchor="start" x="11" y="-78" font-family="Helvetica,sans-Serif" font-size="10.00">lateinit var exitTransition</text>
<text text-anchor="start" x="4" y="-62.75" font-family="Helvetica,sans-Serif" font-size="10.00">&#45;</text>
<text text-anchor="start" x="11" y="-62.75" font-family="Helvetica,sans-Serif" font-size="10.00">lateinit var popEnterTransition</text>
<text text-anchor="start" x="4" y="-47.5" font-family="Helvetica,sans-Serif" font-size="10.00">&#45;</text>
<text text-anchor="start" x="11" y="-47.5" font-family="Helvetica,sans-Serif" font-size="10.00">lateinit var popExitTransition</text>
<text text-anchor="start" x="4" y="-32.25" font-family="Helvetica,sans-Serif" font-size="10.00">&#45;</text>
<text text-anchor="start" x="11" y="-32.25" font-family="Helvetica,sans-Serif" font-size="10.00">lateinit var [instance</text>
<text text-anchor="start" x="11" y="-21" font-family="Helvetica,sans-Serif" font-size="10.00"> initializer]</text>
<text text-anchor="start" x="4" y="-5.75" font-family="Helvetica,sans-Serif" font-size="10.00">&#45;</text>
<text text-anchor="start" x="11" y="-5.75" font-family="Helvetica,sans-Serif" font-size="10.00">fun requestCameraPermission()</text>
<polygon fill="#666666" stroke="#666666" points="0,-161.75 0,-161.75 151.5,-161.75 151.5,-161.75 0,-161.75"/>
<polygon fill="#666666" stroke="#666666" points="0,-43.75 0,-43.75 9,-43.75 9,-43.75 0,-43.75"/>
<polygon fill="#666666" stroke="#666666" points="9,-43.75 9,-43.75 151.5,-43.75 151.5,-43.75 9,-43.75"/>
<polygon fill="none" stroke="#666666" points="0,0 0,-179 151.5,-179 151.5,0 0,0"/>
</a>
</g>
</g>
<!-- Node2 -->
<g id="Node000002" class="node">
<title>Node2</title>
<g id="a_Node000002"><a xlink:title=" ">
<polygon fill="white" stroke="none" points="116.5,-264.75 35,-264.75 35,-215 116.5,-215 116.5,-264.75"/>
<text text-anchor="start" x="39" y="-251.25" font-family="Helvetica,sans-Serif" font-size="10.00">FragmentActivity</text>
<text text-anchor="start" x="74.25" y="-236" font-family="Helvetica,sans-Serif" font-size="10.00"> </text>
<text text-anchor="start" x="74.25" y="-220.75" font-family="Helvetica,sans-Serif" font-size="10.00"> </text>
<polygon fill="#666666" stroke="#666666" points="35,-247.5 35,-247.5 116.5,-247.5 116.5,-247.5 35,-247.5"/>
<polygon fill="#666666" stroke="#666666" points="35,-232.25 35,-232.25 116.5,-232.25 116.5,-232.25 35,-232.25"/>
<polygon fill="none" stroke="#666666" points="35,-215 35,-264.75 116.5,-264.75 116.5,-215 35,-215"/>
</a>
</g>
</g>
<!-- Node2&#45;&gt;Node1 -->
<g id="edge1_Node000001_Node000002" class="edge">
<title>Node2&#45;&gt;Node1</title>
<g id="a_edge1_Node000001_Node000002"><a xlink:title=" ">
<path fill="none" stroke="#63b8ff" d="M75.75,-203.69C75.75,-196.02 75.75,-187.56 75.75,-178.84"/>
<polygon fill="none" stroke="#63b8ff" points="72.25,-203.52 75.75,-213.52 79.25,-203.52 72.25,-203.52"/>
</a>
</g>
</g>
</g>
</svg>
