<?xml version="1.0" encoding="UTF-8" standalone="no"?>
<!DOCTYPE svg PUBLIC "-//W3C//DTD SVG 1.1//EN"
 "http://www.w3.org/Graphics/SVG/1.1/DTD/svg11.dtd">
<!-- Generated by graphviz version 12.2.1 (20241206.2353)
 -->
<!-- Title: bestnotepadevercreaated Pages: 1 -->
<!--zoomable 95 -->

<svg id="main" version="1.1" xmlns="http://www.w3.org/2000/svg" xmlns:xlink="http://www.w3.org/1999/xlink" xml:space="preserve" onload="init(evt)">

<style type="text/css"><![CDATA[
.node, .edge {opacity: 0.7;}
.node.selected, .edge.selected {opacity: 1;}
.edge:hover path { stroke: red; }
.edge:hover polygon { stroke: red; fill: red; }
]]></style>

<defs>
  <circle id="rim" cx="0" cy="0" r="7"/>
  <circle id="rim2" cx="0" cy="0" r="3.5"/>
  <g id="zoomPlus">
    <use xlink:href="#rim" fill="#404040"><set attributeName="fill" to="#808080" begin="zoomplus.mouseover" end="zoomplus.mouseout"/></use>
    <path d="M-4,0h8M0,-4v8" fill="none" stroke="white" stroke-width="1.5" pointer-events="none"/>
  </g>
  <g id="zoomMin">
    <use xlink:href="#rim" fill="#404040"><set attributeName="fill" to="#808080" begin="zoomminus.mouseover" end="zoomminus.mouseout"/></use>
    <path d="M-4,0h8" fill="none" stroke="white" stroke-width="1.5" pointer-events="none"/>
  </g>
  <g id="arrowUp" transform="translate(30 24)">
    <use xlink:href="#rim"/>
    <path pointer-events="none" fill="none" stroke="white" stroke-width="1.5" d="M0,-3.0v7 M-2.5,-0.5L0,-3.0L2.5,-0.5"/>
  </g>
  <g id="arrowRight" transform="rotate(90) translate(36 -43)">
    <use xlink:href="#rim"/>
    <path pointer-events="none" fill="none" stroke="white" stroke-width="1.5" d="M0,-3.0v7 M-2.5,-0.5L0,-3.0L2.5,-0.5"/>
  </g>
  <g id="arrowDown" transform="rotate(180) translate(-30 -48)">
    <use xlink:href="#rim"/>
    <path pointer-events="none" fill="none" stroke="white" stroke-width="1.5" d="M0,-3.0v7 M-2.5,-0.5L0,-3.0L2.5,-0.5"/>
  </g>
  <g id="arrowLeft" transform="rotate(270) translate(-36 17)">
    <use xlink:href="#rim"/>
    <path pointer-events="none" fill="none" stroke="white" stroke-width="1.5" d="M0,-3.0v7 M-2.5,-0.5L0,-3.0L2.5,-0.5"/>
  </g>
  <g id="resetDef">
    <use xlink:href="#rim2" fill="#404040"><set attributeName="fill" to="#808080" begin="reset.mouseover" end="reset.mouseout"/></use>
  </g>
</defs>
<script type="application/ecmascript">
var viewWidth = 605;
var viewHeight = 95;
var sectionId = 'dynsection-0';
</script>
<script type="application/ecmascript" xlink:href="svg.min.js"/>
<svg id="graph" class="graph">
<g id="viewport">
<title>bestnotepadevercreaated</title>
<g id="clust1" class="cluster">
<title>clusterdir_1d4ae734d2e594859adcdaac8861a15e</title>
<g id="a_clust1"><a xlink:href="dir_1d4ae734d2e594859adcdaac8861a15e.html" target="_top" xlink:title="ar00k">
<polygon fill="#edf0f7" stroke="#7f7f7f" stroke-dasharray="5,2" points="8,-8 8,-78.5 589,-78.5 589,-8 8,-8"/>
<text text-anchor="middle" x="298.5" y="-65" font-family="Helvetica,sans-Serif" font-size="10.00">ar00k</text>
</a>
</g>
</g>
<g id="clust2" class="cluster">
<title>clusterdir_9e3d75b18884beb5d40f55e16b5e7788</title>
<g id="a_clust2"><a xlink:href="dir_9e3d75b18884beb5d40f55e16b5e7788.html" target="_top">
<polygon fill="#edf0f7" stroke="#404040" stroke-width="2" points="16,-16 16,-51.25 581,-51.25 581,-16 16,-16"/>
</a>
</g>
</g>
<!-- dir_9e3d75b18884beb5d40f55e16b5e7788 -->
<g id="node1" class="node">
<title>dir_9e3d75b18884beb5d40f55e16b5e7788</title>
<text text-anchor="middle" x="87" y="-29.75" font-family="Helvetica,sans-Serif" font-size="10.00">bestnotepadevercreaated</text>
</g>
<!-- dir_7dfbb3be8196f99a552aa0d1624c0710 -->
<g id="node2" class="node">
<title>dir_7dfbb3be8196f99a552aa0d1624c0710</title>
<g id="a_node2"><a xlink:href="dir_7dfbb3be8196f99a552aa0d1624c0710.html" target="_top" xlink:title="content">
<polygon fill="#a2b4d6" stroke="#404040" points="216.12,-43.25 167.88,-43.25 167.88,-24 216.12,-24 216.12,-43.25"/>
<text text-anchor="middle" x="192" y="-29.75" font-family="Helvetica,sans-Serif" font-size="10.00">content</text>
</a>
</g>
</g>
<!-- dir_c7a8ad7bfac8793f6c0e38876bbd94b7 -->
<g id="node3" class="node">
<title>dir_c7a8ad7bfac8793f6c0e38876bbd94b7</title>
<g id="a_node3"><a xlink:href="dir_c7a8ad7bfac8793f6c0e38876bbd94b7.html" target="_top" xlink:title="db">
<polygon fill="#a2b4d6" stroke="#404040" points="263.4,-43.25 234.6,-43.25 234.6,-24 263.4,-24 263.4,-43.25"/>
<text text-anchor="middle" x="249" y="-29.75" font-family="Helvetica,sans-Serif" font-size="10.00">db</text>
</a>
</g>
</g>
<!-- dir_3fb7f95d39b32f263e4fa3838122e97d -->
<g id="node4" class="node">
<title>dir_3fb7f95d39b32f263e4fa3838122e97d</title>
<g id="a_node4"><a xlink:href="dir_3fb7f95d39b32f263e4fa3838122e97d.html" target="_top" xlink:title="pages">
<polygon fill="#a2b4d6" stroke="#404040" points="324.12,-43.25 281.88,-43.25 281.88,-24 324.12,-24 324.12,-43.25"/>
<text text-anchor="middle" x="303" y="-29.75" font-family="Helvetica,sans-Serif" font-size="10.00">pages</text>
</a>
</g>
</g>
<!-- dir_85ba779c823858ed1da854ff01a22d45 -->
<g id="node5" class="node">
<title>dir_85ba779c823858ed1da854ff01a22d45</title>
<g id="a_node5"><a xlink:href="dir_85ba779c823858ed1da854ff01a22d45.html" target="_top" xlink:title="playback">
<polygon fill="#a2b4d6" stroke="#404040" points="396.12,-43.25 341.88,-43.25 341.88,-24 396.12,-24 396.12,-43.25"/>
<text text-anchor="middle" x="369" y="-29.75" font-family="Helvetica,sans-Serif" font-size="10.00">playback</text>
</a>
</g>
</g>
<!-- dir_9c5b7b8d21f91dfa0df9090ca3d2141f -->
<g id="node6" class="node">
<title>dir_9c5b7b8d21f91dfa0df9090ca3d2141f</title>
<g id="a_node6"><a xlink:href="dir_9c5b7b8d21f91dfa0df9090ca3d2141f.html" target="_top" xlink:title="record">
<polygon fill="#a2b4d6" stroke="#404040" points="457.5,-43.25 414.5,-43.25 414.5,-24 457.5,-24 457.5,-43.25"/>
<text text-anchor="middle" x="436" y="-29.75" font-family="Helvetica,sans-Serif" font-size="10.00">record</text>
</a>
</g>
</g>
<!-- dir_1ef7019e491b2e7e80c5d5fdabff3d91 -->
<g id="node7" class="node">
<title>dir_1ef7019e491b2e7e80c5d5fdabff3d91</title>
<g id="a_node7"><a xlink:href="dir_1ef7019e491b2e7e80c5d5fdabff3d91.html" target="_top" xlink:title="settings">
<polygon fill="#a2b4d6" stroke="#404040" points="526.25,-43.25 475.75,-43.25 475.75,-24 526.25,-24 526.25,-43.25"/>
<text text-anchor="middle" x="501" y="-29.75" font-family="Helvetica,sans-Serif" font-size="10.00">settings</text>
</a>
</g>
</g>
<!-- dir_cf9dfecca2df437e917a8b494050f09c -->
<g id="node8" class="node">
<title>dir_cf9dfecca2df437e917a8b494050f09c</title>
<g id="a_node8"><a xlink:href="dir_cf9dfecca2df437e917a8b494050f09c.html" target="_top" xlink:title="ui">
<polygon fill="#a2b4d6" stroke="#404040" points="573.4,-43.25 544.6,-43.25 544.6,-24 573.4,-24 573.4,-43.25"/>
<text text-anchor="middle" x="559" y="-29.75" font-family="Helvetica,sans-Serif" font-size="10.00">ui</text>
</a>
</g>
</g>
</g>
</svg>

<g id="navigator" transform="translate(0 0)" fill="#404254">
  <rect fill="#f2f5e9" fill-opacity="0.5" stroke="#606060" stroke-width=".5" x="0" y="0" width="60" height="60"/>
  <use id="zoomplus" xlink:href="#zoomPlus" x="17" y="9" onmousedown="handleZoom(evt,'in')"/>
  <use id="zoomminus" xlink:href="#zoomMin" x="42" y="9" onmousedown="handleZoom(evt,'out')"/>
  <use id="reset" xlink:href="#resetDef" x="30" y="36" onmousedown="handleReset()"/>
   <use id="arrowup" xlink:href="#arrowUp" x="0" y="0" onmousedown="handlePan(0,-1)"/>
  <use id="arrowright" xlink:href="#arrowRight" x="0" y="0" onmousedown="handlePan(1,0)"/>
  <use id="arrowdown" xlink:href="#arrowDown" x="0" y="0" onmousedown="handlePan(0,1)"/>
  <use id="arrowleft" xlink:href="#arrowLeft" x="0" y="0" onmousedown="handlePan(-1,0)"/>
</g>
<svg viewBox="0 0 15 15" width="100%" height="30px" preserveAspectRatio="xMaxYMin meet">
 <g id="arrow_out" transform="scale(0.3 0.3)">
  <a xlink:href="dir_9e3d75b18884beb5d40f55e16b5e7788_dep_org.svg" target="_base">
   <rect id="button" ry="5" rx="5" y="6" x="6" height="38" width="38"
        fill="#f2f5e9" fill-opacity="0.5" stroke="#606060" stroke-width="1.0"/>
   <path id="arrow"
     d="M 11.500037,31.436501 C 11.940474,20.09759 22.043105,11.32322 32.158766,21.979434 L 37.068811,17.246167 C 37.068811,17.246167 37.088388,32 37.088388,32 L 22.160133,31.978069 C 22.160133,31.978069 26.997745,27.140456 26.997745,27.140456 C 18.528582,18.264221 13.291696,25.230495 11.500037,31.436501 z"
     style="fill:#404040;"/>
  </a>
 </g>
</svg>

<style type='text/css'>
<![CDATA[
[data-mouse-over-selected='false'] { opacity: 0.7; }
[data-mouse-over-selected='true']  { opacity: 1.0; }
]]>
</style>
<script type="application/ecmascript"><![CDATA[
document.addEventListener('DOMContentLoaded', (event) => {
  highlightEdges();
  highlightAdjacentNodes();
});
]]></script>
</svg>
